<svg width="195" height="189" viewBox="0 0 195 189" fill="none" xmlns="http://www.w3.org/2000/svg">
  <circle cx="158" cy="4" r="4" transform="rotate(180 158 4)" fill="#4DE800"/>
  <circle cx="188" cy="33" r="7" transform="rotate(180 188 33)" fill="#4DE800"/>
  <circle cx="158" cy="63" r="7" transform="rotate(180 158 63)" fill="#4DE800"/>
  <circle cx="158" cy="94" r="7" transform="rotate(180 158 94)" fill="#06DCDE"/>
  <circle cx="158" cy="124" r="4" transform="rotate(180 158 124)" fill="#06DCDE"/>
  <circle cx="158" cy="154" r="7" transform="rotate(180 158 154)" fill="#06DCDE"/>
  <ellipse cx="128" cy="154" rx="4" ry="4" transform="rotate(180 128 154)" fill="#06DCDE"/>
  <ellipse cx="98" cy="154" rx="3" ry="3" transform="rotate(180 98 154)" fill="#06DCDE"/>
  <circle cx="128" cy="94" r="5" transform="rotate(180 128 94)" fill="#06DCDE"/>
  <circle cx="128" cy="64" r="5" transform="rotate(180 128 64)" fill="#E0E0E0"/>
  <circle cx="188" cy="94" r="5" transform="rotate(180 188 94)" fill="#E0E0E0"/>
  <circle cx="68" cy="94" r="5" transform="rotate(180 68 94)" fill="#E0E0E0"/>
  <ellipse cx="37" cy="94" rx="4" ry="4" transform="rotate(180 37 94)" fill="#E0E0E0"/>
  <ellipse cx="7" cy="94" rx="7" ry="7" transform="rotate(180 7 94)" fill="#E0E0E0"/>
  <circle cx="158" cy="184" r="5" transform="rotate(180 158 184)" fill="#E0E0E0"/>
  <circle cx="98" cy="94" r="7" transform="rotate(180 98 94)" fill="#06DCDE"/>
  <circle cx="158" cy="34" r="7" transform="rotate(180 158 34)" fill="#4DE800"/>
</svg>
